<?xml version="1.0" encoding="utf-8"?>
<!-- Generator: Adobe Illustrator 25.2.0, SVG Export Plug-In . SVG Version: 6.00 Build 0)  -->
<svg version="1.1" id="レイヤー_1" xmlns="http://www.w3.org/2000/svg" xmlns:xlink="http://www.w3.org/1999/xlink" x="0px"
	 y="0px" viewBox="0 0 841.9 595.3" style="enable-background:new 0 0 841.9 595.3;" xml:space="preserve">
<style type="text/css">
	.st0{fill:#231815;}
</style>
<g id="レイヤー_1_1_">
	<g>
		<path class="st0" d="M314.1,254.7c0,0-3.9,2.3-3.7,6.9l4.8,74.5c0,0,0.8,8.4,4.2,13.9c0,0,0.4,1.8,2.4-0.3c0,0,6.2-6.8,6.3-8
			c0,0,0.4-2.6-0.8-2.9c0,0-0.9-0.9-2.2,0.6c0,0-1.4,1.7-2.9-0.4c0,0-1.9-3.1-3.1-9.5c0,0-3.3-24.4-2.9-29.9c0,0-0.1-5.6,1.6-6.4
			c0,0,1.6-1.2,3.7,0.9c0,0,7.3,8.1,13.4,9.9c0,0,9.6,3.6,15.8-0.4c0,0,9.4-7.4,13.1-14.1c0,0,4.4-7.1,5.6-9.5c0,0,1.9-2.7,3.4-0.1
			c0,0,1.2,8.7,2.4,13.6c0,0,1.3,7.9,8,13.9c0,0,13.9,11.8,25.1,15.7c0,0,4.2,1,5.1,0.1c0,0,1.9-1.8-1.4-3.1c0,0-10.8-3.5-16.3-9.1
			c0,0-8.6-5.7-11.1-11.9c0,0-3.5-5.1-3.8-16.6v-20.9c0,0-0.3-4.3-3.1-3.5c0,0-1.9,0.1-3.1,3.8c0,0-2.1,5.9-9.4,17.3
			c0,0-8.8,14-15.4,18.4c0,0-5.5,4.4-12,1.4c0,0-9.6-3.9-12.4-8.4c0,0-6-8.6-7.3-17.4c0,0-0.7-7.1-0.7-10.1
			C317.6,263.3,317.5,252.8,314.1,254.7z"/>
		<path class="st0" d="M431,273c0,0-4.4-6.2-10.2-6.4c0,0-6.1-0.8-9.1,2.4c0,0-3.8,3.6-6.2,10.6c0,0-2.9,6.8-2.4,17.1
			c0,0,0.6,8.9,8.1,10.8c0,0,9.6,2.2,15.7-1.4c0,0,12.1-7.3,14.9-10.6c0,0,3.5-3.1,2.2-4.2c0,0-1-1.2-2.6,0.1c0,0-5.5,4.8-9.8,7.1
			c0,0-6.2,4.6-10.8,5.4c0,0-6.9,1.4-10.3-2.1c0,0-4.6-4.4-3.5-10.3c0,0,1.2-11.3,6.1-16.8c0,0,2.6-3.8,6.5-2.7c0,0,5.5,0.6,8.4,4
			c0,0,2.8,1.8,3.9,0.5C431.9,276.2,433.1,275.4,431,273z"/>
		<path class="st0" d="M527.5,250.5c0,0-9.2-7.2-19.4-8.2c0,0-23.5-0.2-31.6,2.9c0,0-8.6,2.9-9.3,3.9c0,0,1-7.1,1.4-7.2
			c0,0,0.7-3.4-1.3-3.4c0,0-1.5-0.4-2.3,1.2c0,0-2.6,4.4-4.1,12.1c0,0-6,5.6-9.4,10.3c0,0-5.6,7.2-4.6,10c0,0,3.2,7.7,7.9,8.6
			c0,0-0.5,25.9,1.7,36.8c0,0,2,7.8,1.2,12c0,0-0.1,1.5-4.5,5.8c0,0-12.8,12.1-20.3,15.4c0,0-4.4,2.6-3.3,5.2c0,0,1.1,2.4,6.5,0
			c0,0,5.5-1.9,11.1-7.7c0,0,10.6-10.3,11.8-11.3c0,0,2.8-0.6,5.1-0.2c0,0,3.6,1.2,4.1-1.8c0,0-0.1-4.9,2.4-7
			c0,0,17.2-11.7,25.4-19.7c0,0,17.5-13.5,22.3-21.1c0,0,10.6-13.7,12.2-20.8C530.7,266.2,533.8,257,527.5,250.5z M457.4,272.1
			c-0.5,5-1.8,4.9-1.8,4.9c-1,0.1-1.9-0.8-1.9-0.8c-2.7-1.7-1.8-8.4-1.8-8.4c1.5-4.3,4.3-5.3,4.3-5.3c1.1-0.7,2,0.8,2,0.8
			C458.6,265.9,457.4,272.1,457.4,272.1z M527.8,264.2c-0.9,7.7-13.5,22.2-13.5,22.2c-5.2,5.8-19.7,17.4-19.7,17.4
			c-5.1,4.9-23.1,18.1-23.1,18.1c-2.9,2.2-4.7,3.2-4.7,3.2c-2,0.7-2.7-3.4-2.7-3.4c0.5-3.4-2.6-8.9-2.6-8.9
			c-1.3-6.6-0.7-22.9-0.7-22.9c-0.2-8.6,0.7-22.5,0.7-22.5c0.2-5.4,2.9-9.9,2.9-9.9c2.8-4.5,10.4-6.9,10.4-6.9
			c9.4-3.8,25-4.4,25-4.4c14.6-1.1,24.1,5.4,24.1,5.4C529.6,253.3,527.8,264.2,527.8,264.2z"/>
	</g>
</g>
<g id="レイヤー_2_1_">
</g>
</svg>
